<svg xmlns="http://www.w3.org/2000/svg" width="102" height="102" viewBox="0 0 102 102">
  <g id="Group_10" data-name="Group 10" transform="translate(-921 -2024)">
    <circle id="Ellipse_7" data-name="Ellipse 7" cx="51" cy="51" r="51" transform="translate(921 2024)" fill="#ffe787"/>
    <g id="horn_1_" data-name="horn (1)" transform="matrix(0.53, 0.848, -0.848, 0.53, 982.693, 2029.175)">
      <path id="Path_9" data-name="Path 9" d="M3.225,0A3.225,3.225,0,1,0,6.449,3.225,3.229,3.229,0,0,0,3.225,0Zm0,4.3A1.075,1.075,0,1,1,4.3,3.225,1.077,1.077,0,0,1,3.225,4.3Z" transform="translate(45.146 4.3)" fill="#2e2e2e"/>
      <path id="Path_10" data-name="Path 10" d="M63.42,0h-30.1A3.229,3.229,0,0,0,30.1,3.225v8.6a3.22,3.22,0,0,0,2.15,3.027V28.933A27.225,27.225,0,0,1,8.371,55.8a3.223,3.223,0,0,0-3-2.053H0v12.9H5.375a3.219,3.219,0,0,0,3.037-2.183l7.789-.3A50.06,50.06,0,0,0,64.473,14.857a3.218,3.218,0,0,0,2.171-3.033v-8.6A3.229,3.229,0,0,0,63.42,0ZM60.349,2.15a7.525,7.525,0,0,0-2.3,5.375,7.525,7.525,0,0,0,2.3,5.375H53.627a7.5,7.5,0,0,0,0-10.749ZM43,7.524A5.375,5.375,0,1,1,48.371,12.9,5.381,5.381,0,0,1,43,7.524Zm-2.15,0A7.5,7.5,0,0,0,43.115,12.9H36.393a7.525,7.525,0,0,0,2.3-5.375,7.525,7.525,0,0,0-2.3-5.375h6.721A7.5,7.5,0,0,0,40.847,7.524Zm-8.6-4.3a1.055,1.055,0,0,1,.431-.837,5.345,5.345,0,0,1,0,10.274,1.055,1.055,0,0,1-.431-.837ZM21.5,53.106V61.5q-1.067.16-2.15.271V54.44q1.106-.621,2.15-1.334ZM8.6,57.935a28.689,28.689,0,0,0,4.3-.84v5.042L8.6,62.3ZM6.449,63.42a1.076,1.076,0,0,1-1.075,1.075H2.15V55.9H5.375A1.076,1.076,0,0,1,6.449,56.97Zm9.668-1.406-1.068.042V56.4q1.095-.4,2.15-.877v6.419c-.361.021-.718.054-1.081.068Zm7.531-.883V51.495A29.374,29.374,0,0,0,34.2,32.247H52.671V30.1h-18.3c.015-.387.028-.774.028-1.164v-.986h4.3V25.8H34.4v-2.15H56.97V21.5H34.4v-2.15h2.15V17.2H34.4v-2.15H62.319c-.016.72-.045,1.437-.092,2.15H38.7v2.15H62.041c-.08.721-.172,1.438-.283,2.15H59.12v2.15h2.256q-.219,1.084-.484,2.15H40.847v2.15H60.3q-.327,1.087-.7,2.15H54.821v2.15h3.961A47.893,47.893,0,0,1,23.648,61.131ZM64.495,11.824a1.055,1.055,0,0,1-.431.837,5.345,5.345,0,0,1,0-10.274,1.055,1.055,0,0,1,.431.837Z" transform="translate(0 0)" fill="#2e2e2e"/>
      <path id="Path_11" data-name="Path 11" d="M0,1.62l1.631,1.4c.48-.559.948-1.142,1.391-1.73L1.3,0Q.678.83,0,1.62Z" transform="translate(28.95 47.672)" fill="#2e2e2e"/>
      <path id="Path_12" data-name="Path 12" d="M0,1.777,1.8,2.953c.4-.617.791-1.256,1.152-1.9L1.08,0Q.569.906,0,1.777Z" transform="translate(31.446 44.194)" fill="#2e2e2e"/>
      <path id="Path_13" data-name="Path 13" d="M0,1.9l1.938.93c.318-.663.62-1.347.894-2.033l-2-.8Q.449.969,0,1.9Z" transform="translate(33.486 40.446)" fill="#2e2e2e"/>
      <path id="Path_14" data-name="Path 14" d="M0,1.339l1.44,1.6Q2.208,2.243,2.929,1.5L1.392,0Q.718.692,0,1.339Z" transform="translate(26.153 50.827)" fill="#2e2e2e"/>
      <path id="Path_15" data-name="Path 15" d="M0,14.687l1.172,1.8A46.008,46.008,0,0,0,15.821,1.079L13.962,0A43.837,43.837,0,0,1,0,14.687Z" transform="translate(38.19 36.007)" fill="#2e2e2e"/>
    </g>
  </g>
</svg>
